<svg width="32" height="25" viewBox="0 0 32 25" fill="none" xmlns="http://www.w3.org/2000/svg">
<path d="M25 19.5504C28.3689 19.2159 31 16.3736 31 12.9167C31 8.9061 27.3156 5.75181 23.376 6.31822C23.3718 6.31884 23.3675 6.31665 23.3656 6.3128C21.86 3.31064 18.754 1.25 15.1667 1.25C10.388 1.25 6.46346 4.90653 6.03819 9.57429C6.03772 9.57946 6.03333 9.58345 6.02814 9.58344C3.29317 9.57853 1 11.8393 1 14.5833C1 17.3447 3.23858 19.5833 6 19.5833H7" stroke="white" stroke-width="1.5" stroke-linecap="round"/>
<g opacity="0.3">
<path d="M12.25 17L15.6464 13.6036C15.8417 13.4083 16.1583 13.4083 16.3535 13.6036L19.75 17" stroke="white" stroke-width="1.5" stroke-linecap="round"/>
<path d="M16 14.75L16 23.75" stroke="white" stroke-width="1.5" stroke-linecap="round"/>
</g>
</svg>
