<svg width="26" height="26" viewBox="0 0 26 26" fill="none" xmlns="http://www.w3.org/2000/svg">
<path fill-rule="evenodd" clip-rule="evenodd" d="M16.4521 15.6771H17.308L21.9013 20.2921C22.3455 20.7363 22.3455 21.4621 21.9013 21.9063C21.4571 22.3504 20.7313 22.3504 20.2871 21.9063L15.683 17.3021V16.4463L15.3905 16.1429C13.8738 17.4429 11.8046 18.1146 9.60547 17.7463C6.5938 17.2371 4.1888 14.7238 3.82047 11.6904C3.25714 7.10794 7.1138 3.25128 11.6963 3.81461C14.7296 4.18294 17.243 6.58794 17.7521 9.59961C18.1205 11.7988 17.4488 13.8679 16.1488 15.3846L16.4521 15.6771ZM5.93297 10.8021C5.93297 13.4996 8.11047 15.6771 10.808 15.6771C13.5055 15.6771 15.683 13.4996 15.683 10.8021C15.683 8.10461 13.5055 5.92711 10.808 5.92711C8.11047 5.92711 5.93297 8.10461 5.93297 10.8021Z" fill="white" fill-opacity="0.56"/>
</svg>
