<svg width="14" height="15" viewBox="0 0 14 15" fill="none" xmlns="http://www.w3.org/2000/svg">
<path d="M6.07193 2.20847C6.53832 1.43348 7.66188 1.43348 8.12827 2.20847L9.30666 4.16654C9.47421 4.44496 9.74751 4.64352 10.0641 4.71683L12.2905 5.23247C13.1716 5.43655 13.5188 6.50512 12.9259 7.18817L11.4278 8.91396C11.2148 9.15934 11.1104 9.48062 11.1385 9.80435L11.3361 12.0811C11.4143 12.9822 10.5053 13.6426 9.67247 13.2898L7.5682 12.3983C7.269 12.2716 6.93119 12.2716 6.63199 12.3983L4.52773 13.2898C3.69488 13.6426 2.78591 12.9822 2.86411 12.0811L3.0617 9.80435C3.0898 9.48062 2.98541 9.15934 2.7724 8.91396L1.2743 7.18816C0.681368 6.50512 1.02857 5.43655 1.90974 5.23247L4.13613 4.71683C4.45269 4.64352 4.72599 4.44496 4.89354 4.16654L6.07193 2.20847Z" stroke="white" stroke-opacity="0.6" stroke-width="1.5"/>
</svg>
